<?xml version="1.0" encoding="utf-8"?>
<!-- Generator: Adobe Illustrator 16.0.0, SVG Export Plug-In . SVG Version: 6.00 Build 0)  -->
<!DOCTYPE svg PUBLIC "-//W3C//DTD SVG 1.1//EN" "http://www.w3.org/Graphics/SVG/1.1/DTD/svg11.dtd">
<svg version="1.1" id="Layer_1" xmlns="http://www.w3.org/2000/svg" xmlns:xlink="http://www.w3.org/1999/xlink" x="0px" y="0px"
	 width="238.63px" height="131.873px" viewBox="0 0 238.63 131.873" enable-background="new 0 0 238.63 131.873"
	 xml:space="preserve">
<polygon stroke="#000000" stroke-width="2.7549" stroke-linecap="round" stroke-linejoin="round" stroke-miterlimit="10" points="
	173.592,30.215 166.704,26.633 152.544,19.27 139.3,12.383 118.135,1.377 97.512,12.383 84.605,19.27 71.502,26.264 64.614,29.94
	44.372,40.742 47.615,46.818 64.614,37.747 64.614,80.916 71.502,80.916 71.502,34.071 99.233,19.27 112.14,12.383 118.176,9.163
	124.37,12.383 137.615,19.27 166.704,34.397 166.704,80.916 173.592,80.916 173.592,37.979 190.623,46.834 193.801,40.724 "/>
<g>
	<path d="M124.748,28.461l-5.662,29.612l-5.66-29.612H124.748z M124.289,66.457c0,1.649-0.511,3.076-1.531,4.282
		c-1.02,1.206-2.244,1.81-3.672,1.81s-2.651-0.604-3.672-1.81c-1.02-1.206-1.529-2.633-1.529-4.282c0-1.688,0.51-3.136,1.529-4.342
		c1.021-1.207,2.244-1.81,3.672-1.81s2.652,0.603,3.672,1.81C123.778,63.321,124.289,64.768,124.289,66.457z"/>
</g>
<g>
	<path d="M21.117,93.113c0.544,0.477,0.782,0.995,0.715,1.556c-0.068,0.562-0.289,1.046-0.664,1.454
		c-0.306,0.34-0.672,0.569-1.096,0.688c-0.426,0.12-0.825,0.043-1.199-0.229c-0.782-0.578-1.657-1.012-2.626-1.301
		c-0.97-0.289-1.794-0.434-2.474-0.434c-1.734,0-3.188,0.502-4.36,1.504c-1.173,1.004-2.116,2.313-2.831,3.928
		c-0.713,1.615-1.224,3.435-1.529,5.457c-0.307,2.023-0.442,4.072-0.408,6.146c0.102,5.169,0.943,9.095,2.524,11.78
		c1.581,2.688,3.562,4.029,5.941,4.029c0.985,0,1.98-0.135,2.983-0.408c1.003-0.271,1.946-0.713,2.83-1.326
		c0.544-0.373,1.088-0.5,1.633-0.382c0.543,0.12,1.002,0.366,1.377,0.739c0.34,0.375,0.527,0.825,0.561,1.352
		c0.033,0.527-0.221,1.045-0.765,1.556c-0.986,0.918-2.192,1.589-3.621,2.015c-1.428,0.425-3.095,0.637-4.998,0.637
		c-2.108,0-3.97-0.51-5.585-1.529s-2.975-2.431-4.079-4.232c-1.105-1.803-1.946-3.936-2.524-6.401
		c-0.579-2.464-0.885-5.142-0.918-8.032c-0.035-2.855,0.203-5.559,0.714-8.109c0.51-2.55,1.317-4.785,2.423-6.706
		c1.104-1.921,2.516-3.435,4.232-4.539s3.766-1.657,6.146-1.657c1.733,0,3.238,0.238,4.514,0.714
		C19.307,91.855,20.335,92.434,21.117,93.113z"/>
	<path d="M25.35,111.627c-0.033-1.53,0-3.111,0.103-4.743s0.306-3.222,0.612-4.769c0.306-1.547,0.739-3.01,1.301-4.387
		c0.561-1.377,1.274-2.592,2.142-3.646c0.866-1.053,1.913-1.887,3.136-2.498c1.225-0.612,2.67-0.936,4.336-0.969
		c3.807-0.068,6.638,1.547,8.491,4.844c1.853,3.299,2.745,8.195,2.678,14.688c-0.034,3.876-0.29,7.191-0.765,9.945
		c-0.477,2.754-1.217,5.007-2.219,6.757c-1.004,1.752-2.27,3.026-3.8,3.826c-1.53,0.798-3.366,1.197-5.508,1.197
		s-3.885-0.654-5.228-1.963c-1.344-1.309-2.396-2.958-3.162-4.947c-0.766-1.988-1.301-4.173-1.606-6.553
		S25.384,113.769,25.35,111.627z M37.233,94.848c-1.156-0.033-2.142,0.256-2.958,0.869c-0.816,0.612-1.488,1.43-2.015,2.451
		c-0.527,1.021-0.936,2.171-1.224,3.447c-0.289,1.277-0.51,2.537-0.664,3.781c-0.152,1.242-0.238,2.399-0.254,3.473
		c-0.018,1.072-0.025,1.915-0.025,2.527c0.033,2.453,0.186,4.691,0.459,6.718c0.271,2.026,0.662,3.755,1.172,5.185
		c0.511,1.43,1.139,2.537,1.888,3.32c0.747,0.783,1.614,1.174,2.601,1.174c1.021,0,1.972-0.271,2.856-0.816
		c0.884-0.545,1.648-1.49,2.295-2.835c0.646-1.345,1.155-3.132,1.53-5.362c0.373-2.23,0.578-5.032,0.611-8.404
		c0-2.314-0.119-4.418-0.356-6.308c-0.238-1.89-0.612-3.507-1.122-4.853c-0.51-1.345-1.156-2.392-1.938-3.141
		C39.307,95.325,38.355,94.916,37.233,94.848z"/>
	<path d="M55.287,91.354c0.611-0.152,1.325-0.211,2.142-0.178c2.821,0.137,5.32,0.621,7.497,1.453
		c2.176,0.834,4.004,2.058,5.482,3.672c1.479,1.615,2.592,3.639,3.34,6.069s1.105,5.296,1.071,8.594
		c-0.068,6.597-1.487,11.637-4.259,15.121c-2.771,3.485-6.74,5.261-11.908,5.329c-1.156,0.034-2.04-0.102-2.652-0.407
		c-0.611-0.306-0.969-1.071-1.07-2.296c-0.068-1.393-0.119-3.136-0.153-5.227c-0.034-2.092-0.068-4.139-0.103-6.146
		c0-0.985,0-1.955,0-2.907c0-0.951-0.018-1.92-0.051-2.906l-0.152-7.345c-0.035-1.598-0.076-3.17-0.128-4.718
		c-0.051-1.547-0.076-3.137-0.076-4.768v-1.633C54.334,92.077,54.674,91.508,55.287,91.354z M59.111,111.346
		c0.033,2.614,0.068,5.271,0.102,7.969c0.034,2.699,0.085,5.355,0.154,7.969c0.169,0.035,0.313,0.051,0.433,0.051s0.247,0,0.383,0
		c1.495,0,2.864-0.449,4.105-1.349s2.303-2.113,3.188-3.641c0.884-1.526,1.572-3.292,2.065-5.296
		c0.492-2.002,0.739-4.106,0.739-6.314c0-2.205-0.264-4.259-0.79-6.16c-0.527-1.901-1.284-3.547-2.27-4.939
		c-0.986-1.391-2.193-2.461-3.621-3.207c-1.428-0.748-3.027-1.087-4.794-1.02c0,1.766,0.017,3.515,0.051,5.246
		c0.034,1.73,0.085,3.479,0.153,5.244c0.033,0.883,0.051,1.782,0.051,2.699C59.061,109.514,59.077,110.43,59.111,111.346z"/>
	<path d="M81.296,114.023c0-2.991,0-5.516,0-7.573c0-2.057-0.009-3.757-0.025-5.101c-0.018-1.342-0.034-2.396-0.051-3.162
		c-0.018-0.764-0.034-1.342-0.052-1.733c-0.018-0.391-0.025-0.654-0.025-0.79s0-0.271,0-0.408v-2.04c0-0.476,0.11-0.96,0.332-1.454
		c0.221-0.492,0.739-0.739,1.556-0.739h6.885c0.815,0,1.598-0.008,2.347-0.025c0.746-0.017,1.461-0.025,2.141-0.025
		c1.599,0,2.686,0.051,3.265,0.153c0.374,0.068,0.772,0.246,1.198,0.535s0.638,0.757,0.638,1.402c0,0.477-0.076,0.859-0.229,1.147
		c-0.152,0.29-0.357,0.511-0.611,0.663c-0.256,0.153-0.536,0.247-0.842,0.281c-0.307,0.033-0.612,0.051-0.918,0.051l-11.17-0.051
		c0.034,2.346,0.077,4.564,0.128,6.654c0.052,2.092,0.093,4.311,0.128,6.656c0.441,0,1.063,0.009,1.861,0.025
		c0.799,0.018,1.742,0.025,2.83,0.025s2.134,0.009,3.137,0.025c1.002,0.018,2.065-0.008,3.188-0.076
		c0.543-0.033,1.012,0.119,1.402,0.459s0.587,0.799,0.587,1.377c0,0.714-0.196,1.268-0.587,1.657
		c-0.391,0.392-0.926,0.604-1.605,0.638c-0.511,0.034-1.361,0.06-2.551,0.076c-1.19,0.018-2.396,0.025-3.621,0.025h-4.691
		c0,1.4,0.008,2.808,0.025,4.224c0.017,1.416,0.025,2.823,0.025,4.222v4.71c0,0.376,0.067,0.622,0.203,0.741
		c0.137,0.12,0.34,0.18,0.613,0.18h2.396c1.088,0,2.091,0.009,3.009,0.025c0.918,0.018,1.614,0.01,2.091-0.025l4.182-0.051
		c1.395,0,2.092,0.688,2.092,2.065c0,0.604-0.171,1.083-0.51,1.437c-0.341,0.352-0.867,0.545-1.582,0.578
		c-0.781,0.033-1.656,0.051-2.626,0.051c-0.969,0-1.794,0-2.474,0h-8.771c-1.395,0-2.295-0.357-2.703-1.07
		c-0.408-0.715-0.612-1.548-0.612-2.5V114.023z"/>
	<path d="M135.662,93.267c0.102-0.476,0.287-0.833,0.561-1.071c0.271-0.237,0.594-0.356,0.969-0.356c0.34,0,0.663,0.11,0.969,0.331
		c0.307,0.222,0.527,0.553,0.663,0.994c0,3.129,0.026,6.197,0.077,9.206s0.109,6.011,0.178,9.001
		c0.068,2.992,0.128,6.002,0.179,9.027c0.052,3.027,0.077,6.104,0.077,9.231c-0.035,0.544-0.223,0.951-0.562,1.224
		c-0.341,0.271-0.697,0.408-1.071,0.408c-0.375,0-0.706-0.127-0.994-0.383c-0.289-0.255-0.468-0.637-0.535-1.147
		c-0.035-2.991-0.068-5.983-0.103-8.976s-0.085-5.984-0.153-8.977c-2.346-0.033-4.59-0.051-6.731-0.051s-4.386,0.034-6.732,0.102
		c-0.034,0-0.043,0.426-0.025,1.275c0.017,0.851,0.034,1.912,0.052,3.188c0.016,1.275,0.033,2.678,0.051,4.207
		c0.016,1.531,0.033,2.984,0.051,4.361c0.017,1.377,0.033,2.559,0.051,3.545c0.017,0.985,0.025,1.598,0.025,1.836
		c-0.034,0.543-0.221,0.951-0.561,1.224c-0.341,0.271-0.715,0.407-1.123,0.407c-0.374,0-0.705-0.127-0.994-0.382
		s-0.467-0.638-0.535-1.147c-0.068-2.007-0.111-3.833-0.127-5.482c-0.018-1.648-0.025-3.246-0.025-4.794
		c0-1.547-0.018-3.137-0.052-4.769c-0.034-1.633-0.068-3.451-0.103-5.457c0-0.612-0.008-1.589-0.025-2.933
		c-0.018-1.343-0.025-2.831-0.025-4.462c0-1.633,0.008-3.298,0.025-4.998s0.043-3.23,0.077-4.59
		c0.033-0.375,0.212-0.654,0.536-0.842c0.322-0.188,0.67-0.281,1.045-0.281c0.441,0,0.842,0.119,1.198,0.357s0.519,0.596,0.484,1.07
		c-0.068,2.347-0.102,4.829-0.102,7.447c0,2.617,0,5.303,0,8.057c2.481-0.033,4.776-0.051,6.885-0.051s4.317,0.018,6.63,0.051
		c-0.068-2.719-0.119-5.277-0.152-7.675C135.678,98.596,135.662,96.021,135.662,93.267z"/>
	<path d="M144.994,111.984c-0.034-1.326-0.018-2.755,0.051-4.285c0.068-1.529,0.238-3.06,0.51-4.59c0.272-1.529,0.646-3,1.123-4.411
		c0.475-1.411,1.113-2.651,1.912-3.724c0.799-1.07,1.76-1.938,2.881-2.601c1.123-0.663,2.465-1.011,4.029-1.046
		c3.57-0.033,6.146,1.574,7.727,4.82c1.581,3.247,2.354,8.032,2.32,14.356c-0.033,3.843-0.28,7.089-0.739,9.741
		c-0.459,2.651-1.156,4.803-2.091,6.451c-0.936,1.648-2.108,2.848-3.52,3.596c-1.41,0.747-3.068,1.121-4.973,1.121
		c-1.631,0-3.018-0.611-4.156-1.836c-1.139-1.224-2.082-2.787-2.83-4.691s-1.301-4.004-1.658-6.299
		C145.224,116.293,145.027,114.092,144.994,111.984z M155.807,94.389c-1.225-0.068-2.262,0.222-3.111,0.867
		c-0.85,0.646-1.556,1.504-2.117,2.575c-0.561,1.071-0.994,2.278-1.3,3.621c-0.306,1.344-0.536,2.669-0.688,3.978
		c-0.152,1.31-0.238,2.525-0.255,3.646c-0.018,1.123-0.026,2.007-0.026,2.652c0.034,2.04,0.188,4.063,0.459,6.069
		c0.272,2.007,0.672,3.792,1.199,5.354c0.527,1.564,1.173,2.831,1.938,3.8c0.766,0.97,1.641,1.454,2.627,1.454
		c1.155,0,2.201-0.238,3.137-0.715c0.935-0.476,1.75-1.359,2.447-2.652c0.697-1.291,1.232-3.085,1.607-5.38
		c0.373-2.295,0.577-5.278,0.611-8.95c0.033-5.406-0.484-9.443-1.555-12.113C159.708,95.928,158.051,94.525,155.807,94.389z"/>
	<path d="M181.152,128.763c1.666,0,2.949-0.468,3.852-1.402c0.9-0.935,1.572-2.142,2.014-3.621s0.705-3.111,0.791-4.896
		c0.084-1.785,0.127-3.545,0.127-5.279c0.033-3.195,0.018-6.604-0.051-10.225c-0.068-3.621-0.119-7.029-0.152-10.227
		c0.067-0.408,0.221-0.722,0.459-0.943c0.236-0.221,0.492-0.365,0.765-0.434c0.374-0.067,0.765,0,1.173,0.204
		s0.696,0.562,0.867,1.071c0,1.599,0.017,3.314,0.051,5.15c0.033,1.836,0.059,3.698,0.076,5.585c0.018,1.888,0.033,3.757,0.051,5.61
		s0.025,3.578,0.025,5.176c0,2.652-0.17,5.059-0.51,7.217c-0.34,2.16-0.9,3.986-1.683,5.482s-1.802,2.644-3.06,3.443
		c-1.259,0.798-2.822,1.164-4.692,1.096c-1.53-0.034-2.839-0.289-3.927-0.765c-1.089-0.477-1.989-1.114-2.703-1.913
		s-1.268-1.708-1.658-2.729c-0.391-1.02-0.688-2.099-0.893-3.238c-0.203-1.139-0.34-2.303-0.407-3.493
		c-0.069-1.19-0.103-2.329-0.103-3.417c-0.033-3.943-0.068-7.785-0.102-11.526c-0.034-3.739-0.018-7.564,0.051-11.475
		c0.068-0.476,0.238-0.824,0.51-1.046c0.271-0.221,0.578-0.348,0.918-0.383c0.374-0.033,0.731,0.061,1.071,0.281
		s0.595,0.569,0.765,1.045c-0.033,1.938-0.051,3.834-0.051,5.688s0,3.689,0,5.508s0.008,3.654,0.025,5.508s0.043,3.766,0.077,5.737
		c0.033,1.259,0.093,2.651,0.179,4.183c0.084,1.529,0.322,2.967,0.713,4.309c0.391,1.344,1.012,2.466,1.862,3.366
		C178.432,128.312,179.623,128.763,181.152,128.763z"/>
	<path d="M214.659,97.5c0.103,0.477,0.033,0.875-0.204,1.198c-0.238,0.323-0.544,0.536-0.918,0.638
		c-0.374,0.137-0.765,0.119-1.173-0.051s-0.663-0.527-0.765-1.071c-0.238-1.258-0.774-2.235-1.607-2.933s-1.895-1.063-3.188-1.097
		c-1.054-0.033-1.972,0.085-2.754,0.356c-0.781,0.273-1.436,0.639-1.963,1.098s-0.927,0.986-1.199,1.58
		c-0.271,0.596-0.407,1.217-0.407,1.861c0,1.395,0.595,2.865,1.785,4.412c1.189,1.547,2.856,3.357,4.997,5.432
		c1.633,1.564,2.992,2.958,4.081,4.182c1.087,1.225,1.963,2.381,2.626,3.469s1.13,2.159,1.402,3.213s0.391,2.176,0.357,3.365
		c-0.034,1.53-0.314,2.84-0.842,3.928s-1.232,1.98-2.116,2.678c-0.885,0.695-1.912,1.206-3.085,1.529
		c-1.174,0.322-2.424,0.484-3.749,0.484c-1.326,0-2.567-0.225-3.724-0.676s-2.167-1.072-3.034-1.862
		c-0.866-0.79-1.538-1.702-2.015-2.74c-0.477-1.036-0.714-2.149-0.714-3.341c-0.034-0.51,0.103-0.9,0.408-1.173
		c0.306-0.271,0.663-0.425,1.071-0.459c0.373-0.033,0.739,0.069,1.096,0.306c0.357,0.238,0.569,0.612,0.639,1.123
		c0.066,1.733,0.67,3.145,1.811,4.232c1.139,1.088,2.626,1.648,4.462,1.684c2.073,0.033,3.68-0.443,4.819-1.429
		c1.139-0.985,1.709-2.431,1.709-4.335c0-1.122-0.153-2.133-0.459-3.034c-0.307-0.901-0.766-1.802-1.377-2.703
		c-0.612-0.9-1.377-1.827-2.295-2.78c-0.918-0.951-1.99-2.039-3.213-3.264c-1.225-1.224-2.321-2.354-3.29-3.391
		c-0.97-1.037-1.794-2.031-2.474-2.984c-0.681-0.951-1.199-1.887-1.556-2.805s-0.535-1.869-0.535-2.855s0.169-1.964,0.51-2.934
		c0.339-0.969,0.875-1.826,1.606-2.574c0.73-0.748,1.684-1.352,2.855-1.811c1.174-0.459,2.593-0.689,4.26-0.689
		c2.107,0,3.875,0.477,5.304,1.43C213.231,93.658,214.183,95.256,214.659,97.5z"/>
	<path d="M220.627,114.584l-0.103-17.799c0-0.135,0-0.356,0-0.662c0-0.307-0.009-0.62-0.025-0.943
		c-0.018-0.323-0.025-0.639-0.025-0.943c0-0.307,0-0.527,0-0.664c0-0.339,0.128-0.696,0.383-1.07s0.654-0.527,1.198-0.459
		c1.054,0.034,2.337,0.043,3.851,0.025c1.513-0.018,3-0.033,4.462-0.051s2.78-0.018,3.953,0s1.963,0.06,2.371,0.127
		c0.204,0.034,0.383,0.188,0.536,0.459c0.152,0.272,0.229,0.527,0.229,0.766c0,0.68-0.188,1.105-0.562,1.274
		c-0.374,0.171-0.782,0.255-1.224,0.255c-0.408,0-1.14,0-2.193,0s-2.185-0.008-3.392-0.025c-1.207-0.017-2.338-0.025-3.392-0.025
		s-1.785,0-2.192,0h-0.97l0.256,14.841c1.598,0.034,3.11,0.052,4.539,0.052c1.224,0,2.455,0,3.697,0c1.24,0,2.201-0.034,2.881-0.103
		c0.17-0.034,0.323-0.052,0.459-0.052h0.766c0.306,0.035,0.526,0.205,0.663,0.511c0.135,0.306,0.204,0.544,0.204,0.714
		c0,0.545-0.137,0.943-0.408,1.199c-0.272,0.254-0.63,0.399-1.071,0.434c-0.171,0-0.468,0.008-0.893,0.025
		c-0.426,0.018-0.927,0.033-1.504,0.051c-0.579,0.018-1.217,0.025-1.913,0.025c-0.697,0-1.386,0-2.065,0h-5.406l0.052,9.18v5.253
		c0,0.579,0.084,0.91,0.255,0.995c0.169,0.085,0.441,0.127,0.815,0.127c0.68,0,1.42,0,2.219,0s1.581,0,2.346,0
		c0.766,0,1.479,0,2.143,0s1.181,0,1.556,0l4.386-0.102c0.408-0.033,0.696,0.127,0.867,0.484c0.169,0.357,0.255,0.654,0.255,0.893
		c-0.034,0.476-0.153,0.832-0.357,1.07s-0.578,0.357-1.122,0.357c-1.292,0.033-2.508,0.059-3.646,0.076
		c-1.14,0.018-2.262,0.025-3.366,0.025s-2.235-0.008-3.391-0.025c-1.156-0.018-2.364-0.025-3.621-0.025
		c-0.681,0-1.268-0.162-1.76-0.484c-0.493-0.324-0.739-0.824-0.739-1.504V114.584z"/>
</g>
</svg>
