<?xml version="1.0" encoding="utf-8"?>
<!-- Generator: Adobe Illustrator 16.0.0, SVG Export Plug-In . SVG Version: 6.00 Build 0)  -->
<!DOCTYPE svg PUBLIC "-//W3C//DTD SVG 1.1//EN" "http://www.w3.org/Graphics/SVG/1.1/DTD/svg11.dtd">
<svg version="1.1" id="Layer_1" xmlns="http://www.w3.org/2000/svg" xmlns:xlink="http://www.w3.org/1999/xlink" x="0px" y="0px"
	 width="238.629px" height="131.873px" viewBox="0 0 238.629 131.873" enable-background="new 0 0 238.629 131.873"
	 xml:space="preserve">
<polygon fill="#E1E1E1" points="173.592,30.215 166.704,26.633 152.543,19.27 139.299,12.383 118.135,1.377 97.512,12.383 
	84.605,19.27 71.502,26.264 64.614,29.94 44.372,40.742 47.615,46.818 64.614,37.747 64.614,80.916 71.502,80.916 71.502,34.071 
	99.233,19.27 112.14,12.383 118.176,9.163 124.37,12.383 137.616,19.27 166.704,34.397 166.704,80.916 173.592,80.916 
	173.592,37.979 190.624,46.834 193.801,40.724 "/>
<g>
	<path fill="#E1E1E1" d="M124.749,28.461l-5.663,29.612l-5.66-29.612H124.749z M124.29,66.457c0,1.649-0.512,3.076-1.531,4.282
		c-1.021,1.205-2.244,1.81-3.672,1.81c-1.428,0-2.651-0.604-3.672-1.81c-1.02-1.206-1.529-2.633-1.529-4.282
		c0-1.688,0.51-3.136,1.529-4.342c1.021-1.207,2.244-1.81,3.672-1.81c1.428,0,2.652,0.603,3.672,1.81
		C123.778,63.321,124.29,64.768,124.29,66.457z"/>
</g>
<g>
	<path fill="#E1E1E1" d="M21.117,93.112c0.544,0.478,0.782,0.996,0.715,1.557c-0.068,0.562-0.289,1.046-0.664,1.454
		c-0.306,0.34-0.672,0.569-1.096,0.688c-0.426,0.119-0.825,0.043-1.199-0.229c-0.782-0.578-1.657-1.013-2.626-1.301
		c-0.97-0.289-1.794-0.435-2.474-0.435c-1.734,0-3.188,0.502-4.36,1.504c-1.173,1.004-2.116,2.313-2.831,3.928
		c-0.713,1.615-1.224,3.436-1.529,5.457c-0.307,2.023-0.442,4.072-0.408,6.146c0.102,5.169,0.943,9.096,2.524,11.78
		c1.581,2.688,3.562,4.028,5.941,4.028c0.985,0,1.98-0.135,2.983-0.407c1.003-0.271,1.946-0.714,2.83-1.326
		c0.544-0.373,1.088-0.5,1.633-0.382c0.543,0.119,1.002,0.365,1.377,0.738c0.34,0.375,0.527,0.826,0.561,1.353
		c0.033,0.526-0.221,1.045-0.765,1.556c-0.986,0.918-2.192,1.59-3.621,2.016c-1.428,0.425-3.095,0.637-4.998,0.637
		c-2.108,0-3.97-0.51-5.585-1.529c-1.615-1.019-2.975-2.431-4.079-4.232c-1.105-1.803-1.946-3.936-2.524-6.4
		c-0.579-2.464-0.885-5.143-0.918-8.031c-0.035-2.855,0.203-5.56,0.714-8.109c0.51-2.551,1.317-4.785,2.423-6.706
		c1.104-1.921,2.516-3.435,4.232-4.539s3.766-1.657,6.146-1.657c1.733,0,3.238,0.238,4.514,0.714
		C19.307,91.854,20.335,92.435,21.117,93.112z"/>
	<path fill="#E1E1E1" d="M25.35,111.627c-0.033-1.53,0-3.11,0.103-4.743c0.103-1.632,0.306-3.222,0.612-4.769
		c0.306-1.548,0.739-3.011,1.301-4.388c0.561-1.377,1.274-2.592,2.142-3.646c0.866-1.054,1.913-1.888,3.136-2.498
		c1.225-0.612,2.67-0.937,4.336-0.969c3.807-0.068,6.638,1.547,8.491,4.844c1.853,3.299,2.745,8.194,2.678,14.688
		c-0.034,3.875-0.29,7.19-0.765,9.944c-0.477,2.755-1.217,5.007-2.219,6.757c-1.004,1.752-2.27,3.026-3.8,3.826
		c-1.53,0.799-3.366,1.197-5.508,1.197s-3.885-0.654-5.228-1.963c-1.344-1.309-2.396-2.958-3.162-4.947
		c-0.766-1.988-1.301-4.173-1.606-6.553C25.556,116.028,25.384,113.769,25.35,111.627z M37.233,94.849
		c-1.156-0.033-2.142,0.256-2.958,0.868s-1.488,1.431-2.015,2.451c-0.527,1.021-0.936,2.171-1.224,3.447
		c-0.289,1.276-0.51,2.536-0.664,3.78c-0.152,1.242-0.238,2.399-0.254,3.474c-0.018,1.071-0.025,1.915-0.025,2.526
		c0.033,2.453,0.186,4.691,0.459,6.719c0.271,2.025,0.662,3.755,1.172,5.185c0.511,1.431,1.139,2.537,1.888,3.32
		c0.747,0.782,1.614,1.174,2.601,1.174c1.021,0,1.972-0.271,2.856-0.815c0.884-0.545,1.648-1.49,2.295-2.836
		c0.646-1.345,1.155-3.132,1.53-5.361c0.373-2.23,0.578-5.032,0.611-8.404c0-2.314-0.119-4.418-0.356-6.309
		c-0.238-1.89-0.612-3.506-1.122-4.853c-0.51-1.345-1.156-2.392-1.938-3.141C39.307,95.325,38.355,94.916,37.233,94.849z"/>
	<path fill="#E1E1E1" d="M55.287,91.354c0.611-0.152,1.325-0.211,2.142-0.179c2.821,0.138,5.32,0.621,7.497,1.453
		c2.176,0.834,4.004,2.058,5.482,3.672c1.479,1.615,2.592,3.64,3.34,6.069s1.105,5.296,1.071,8.594
		c-0.068,6.598-1.487,11.637-4.259,15.121c-2.771,3.484-6.74,5.262-11.908,5.329c-1.156,0.034-2.04-0.103-2.652-0.407
		c-0.611-0.306-0.969-1.07-1.07-2.296c-0.068-1.394-0.119-3.136-0.153-5.228c-0.034-2.092-0.068-4.139-0.103-6.146
		c0-0.985,0-1.955,0-2.907c0-0.951-0.018-1.92-0.051-2.906l-0.152-7.344c-0.035-1.599-0.076-3.171-0.128-4.719
		c-0.051-1.547-0.076-3.137-0.076-4.768v-1.633C54.334,92.077,54.674,91.508,55.287,91.354z M59.111,111.347
		c0.033,2.613,0.068,5.271,0.102,7.969c0.034,2.699,0.085,5.354,0.154,7.969c0.169,0.035,0.313,0.051,0.433,0.051
		c0.12,0,0.247,0,0.383,0c1.495,0,2.864-0.449,4.105-1.35c1.241-0.899,2.303-2.112,3.188-3.641c0.884-1.525,1.572-3.292,2.065-5.296
		c0.492-2.002,0.739-4.106,0.739-6.313c0-2.205-0.264-4.26-0.79-6.16c-0.527-1.901-1.284-3.547-2.27-4.939
		c-0.986-1.391-2.193-2.461-3.621-3.207c-1.428-0.748-3.027-1.087-4.794-1.02c0,1.766,0.017,3.515,0.051,5.246
		c0.034,1.729,0.085,3.479,0.153,5.244c0.033,0.883,0.051,1.781,0.051,2.699C59.061,109.515,59.077,110.431,59.111,111.347z"/>
	<path fill="#E1E1E1" d="M81.296,114.022c0-2.99,0-5.516,0-7.572s-0.009-3.758-0.025-5.102c-0.018-1.342-0.034-2.396-0.051-3.162
		c-0.018-0.764-0.034-1.342-0.052-1.732s-0.025-0.654-0.025-0.79s0-0.271,0-0.408v-2.04c0-0.476,0.11-0.96,0.332-1.453
		c0.221-0.492,0.739-0.74,1.556-0.74h6.885c0.815,0,1.598-0.008,2.347-0.024c0.746-0.017,1.461-0.024,2.141-0.024
		c1.599,0,2.686,0.051,3.265,0.152c0.374,0.068,0.772,0.246,1.198,0.535c0.426,0.289,0.638,0.757,0.638,1.402
		c0,0.477-0.076,0.858-0.229,1.146c-0.152,0.29-0.357,0.512-0.611,0.663c-0.256,0.153-0.536,0.247-0.842,0.28
		c-0.307,0.033-0.612,0.052-0.918,0.052l-11.17-0.052c0.034,2.347,0.077,4.564,0.128,6.654c0.052,2.092,0.093,4.312,0.128,6.656
		c0.441,0,1.063,0.01,1.861,0.025c0.799,0.018,1.742,0.025,2.83,0.025c1.088,0,2.134,0.008,3.137,0.024
		c1.002,0.019,2.065-0.008,3.188-0.076c0.543-0.032,1.012,0.119,1.402,0.459c0.39,0.341,0.587,0.8,0.587,1.377
		c0,0.714-0.196,1.269-0.587,1.657c-0.391,0.393-0.926,0.604-1.605,0.638c-0.511,0.034-1.361,0.06-2.551,0.076
		c-1.19,0.019-2.396,0.024-3.621,0.024h-4.691c0,1.4,0.008,2.809,0.025,4.225c0.017,1.416,0.025,2.823,0.025,4.223v4.709
		c0,0.377,0.067,0.623,0.203,0.741c0.137,0.12,0.34,0.181,0.613,0.181h2.396c1.088,0,2.091,0.009,3.009,0.024
		c0.918,0.019,1.614,0.011,2.091-0.024l4.182-0.051c1.395,0,2.092,0.688,2.092,2.064c0,0.604-0.171,1.083-0.51,1.438
		c-0.341,0.352-0.867,0.545-1.582,0.577c-0.781,0.033-1.656,0.052-2.626,0.052c-0.969,0-1.794,0-2.474,0h-8.771
		c-1.395,0-2.295-0.357-2.703-1.07c-0.408-0.715-0.612-1.549-0.612-2.5v-13.26H81.296z"/>
	<path fill="#E1E1E1" d="M135.663,93.267c0.102-0.476,0.287-0.832,0.561-1.07c0.271-0.237,0.594-0.356,0.969-0.356
		c0.34,0,0.663,0.11,0.969,0.331c0.307,0.223,0.527,0.553,0.664,0.994c0,3.129,0.025,6.197,0.076,9.206s0.109,6.011,0.178,9.001
		c0.068,2.992,0.129,6.002,0.18,9.027c0.052,3.026,0.076,6.104,0.076,9.23c-0.035,0.544-0.223,0.951-0.562,1.225
		c-0.341,0.271-0.696,0.408-1.071,0.408s-0.705-0.128-0.994-0.384c-0.289-0.255-0.468-0.637-0.535-1.147
		c-0.034-2.99-0.067-5.982-0.103-8.976c-0.034-2.993-0.085-5.983-0.153-8.978c-2.346-0.032-4.59-0.051-6.73-0.051
		s-4.387,0.035-6.732,0.103c-0.033,0-0.043,0.426-0.024,1.274c0.017,0.852,0.034,1.912,0.052,3.188
		c0.016,1.274,0.033,2.679,0.051,4.207c0.016,1.531,0.033,2.983,0.051,4.36c0.018,1.378,0.033,2.56,0.051,3.546
		c0.018,0.985,0.025,1.598,0.025,1.836c-0.033,0.543-0.221,0.95-0.561,1.224c-0.342,0.271-0.715,0.407-1.123,0.407
		c-0.374,0-0.705-0.127-0.994-0.382c-0.289-0.256-0.467-0.639-0.535-1.147c-0.068-2.007-0.111-3.833-0.127-5.481
		c-0.018-1.648-0.025-3.246-0.025-4.795c0-1.547-0.018-3.137-0.052-4.769c-0.034-1.633-0.068-3.45-0.103-5.457
		c0-0.612-0.008-1.589-0.025-2.933c-0.018-1.344-0.025-2.831-0.025-4.462c0-1.634,0.008-3.298,0.025-4.998
		c0.017-1.7,0.043-3.23,0.077-4.591c0.033-0.375,0.212-0.653,0.536-0.842c0.322-0.188,0.67-0.281,1.045-0.281
		c0.441,0,0.842,0.119,1.198,0.357s0.519,0.596,0.483,1.07c-0.068,2.347-0.102,4.829-0.102,7.447c0,2.617,0,5.303,0,8.057
		c2.48-0.033,4.775-0.051,6.885-0.051s4.317,0.018,6.631,0.051c-0.068-2.719-0.119-5.277-0.152-7.675
		C135.678,98.597,135.663,96.021,135.663,93.267z"/>
	<path fill="#E1E1E1" d="M144.995,111.983c-0.035-1.325-0.019-2.754,0.051-4.284c0.067-1.529,0.238-3.06,0.51-4.591
		c0.271-1.528,0.646-3,1.123-4.41c0.475-1.411,1.113-2.651,1.912-3.725c0.799-1.07,1.76-1.938,2.881-2.601
		c1.123-0.663,2.465-1.011,4.029-1.046c3.569-0.033,6.146,1.574,7.727,4.82s2.354,8.031,2.32,14.355
		c-0.033,3.844-0.28,7.089-0.739,9.741c-0.459,2.651-1.156,4.803-2.091,6.45c-0.936,1.648-2.108,2.849-3.521,3.597
		c-1.409,0.747-3.067,1.121-4.973,1.121c-1.632,0-3.019-0.611-4.156-1.836c-1.139-1.224-2.082-2.787-2.83-4.691
		c-0.747-1.903-1.301-4.004-1.657-6.299C145.224,116.293,145.027,114.092,144.995,111.983z M155.807,94.39
		c-1.225-0.068-2.262,0.221-3.111,0.866s-1.556,1.504-2.117,2.575c-0.561,1.07-0.994,2.277-1.3,3.621s-0.536,2.669-0.688,3.979
		c-0.151,1.31-0.237,2.524-0.254,3.646c-0.019,1.123-0.026,2.007-0.026,2.651c0.034,2.041,0.188,4.063,0.459,6.069
		c0.272,2.007,0.672,3.792,1.198,5.354c0.527,1.563,1.174,2.83,1.939,3.8s1.641,1.454,2.627,1.454c1.154,0,2.2-0.238,3.137-0.715
		c0.935-0.477,1.75-1.359,2.447-2.652c0.696-1.291,1.231-3.085,1.606-5.38c0.373-2.296,0.577-5.278,0.61-8.95
		c0.033-5.406-0.483-9.443-1.555-12.113C159.708,95.928,158.051,94.524,155.807,94.39z"/>
	<path fill="#E1E1E1" d="M181.152,128.763c1.666,0,2.949-0.468,3.853-1.402c0.899-0.935,1.572-2.142,2.014-3.62
		c0.441-1.479,0.705-3.111,0.791-4.896c0.084-1.784,0.127-3.545,0.127-5.278c0.033-3.195,0.018-6.604-0.051-10.226
		s-0.119-7.028-0.152-10.228c0.066-0.407,0.221-0.721,0.459-0.942c0.236-0.221,0.492-0.364,0.766-0.435
		c0.373-0.066,0.765,0,1.172,0.205c0.408,0.203,0.697,0.562,0.867,1.07c0,1.6,0.018,3.314,0.051,5.15s0.06,3.697,0.076,5.585
		c0.019,1.888,0.033,3.757,0.051,5.61c0.019,1.853,0.025,3.578,0.025,5.176c0,2.652-0.17,5.059-0.51,7.217
		c-0.34,2.16-0.9,3.986-1.684,5.482c-0.782,1.496-1.801,2.644-3.059,3.442c-1.26,0.798-2.822,1.164-4.693,1.097
		c-1.529-0.035-2.838-0.289-3.926-0.766c-1.09-0.477-1.99-1.113-2.703-1.913c-0.715-0.799-1.269-1.708-1.658-2.729
		c-0.391-1.021-0.688-2.099-0.893-3.238c-0.203-1.14-0.341-2.303-0.408-3.493c-0.068-1.189-0.103-2.329-0.103-3.417
		c-0.032-3.942-0.067-7.784-0.103-11.526c-0.033-3.738-0.018-7.563,0.052-11.475c0.067-0.476,0.237-0.824,0.51-1.046
		c0.271-0.221,0.578-0.349,0.918-0.383c0.374-0.033,0.731,0.062,1.071,0.28c0.34,0.221,0.595,0.569,0.765,1.045
		c-0.032,1.938-0.051,3.834-0.051,5.688s0,3.689,0,5.509c0,1.818,0.008,3.653,0.024,5.508c0.018,1.854,0.043,3.766,0.078,5.736
		c0.032,1.26,0.092,2.651,0.178,4.184c0.084,1.529,0.322,2.967,0.714,4.309c0.391,1.344,1.012,2.466,1.862,3.366
		C178.432,128.312,179.624,128.763,181.152,128.763z"/>
	<path fill="#E1E1E1" d="M214.659,97.5c0.104,0.478,0.033,0.875-0.203,1.198c-0.238,0.322-0.545,0.535-0.918,0.638
		c-0.375,0.138-0.766,0.119-1.174-0.051s-0.662-0.527-0.765-1.071c-0.238-1.258-0.774-2.234-1.606-2.933
		c-0.834-0.698-1.896-1.063-3.188-1.097c-1.054-0.033-1.972,0.084-2.755,0.355c-0.78,0.273-1.436,0.639-1.963,1.098
		c-0.526,0.459-0.926,0.986-1.198,1.58c-0.271,0.596-0.407,1.217-0.407,1.861c0,1.395,0.596,2.865,1.785,4.412
		s2.855,3.357,4.997,5.432c1.633,1.564,2.991,2.958,4.081,4.182c1.087,1.226,1.963,2.381,2.626,3.47
		c0.663,1.088,1.13,2.159,1.401,3.213c0.272,1.054,0.392,2.176,0.357,3.364c-0.034,1.531-0.314,2.841-0.842,3.929
		c-0.528,1.088-1.232,1.979-2.116,2.678c-0.885,0.695-1.912,1.206-3.085,1.529c-1.174,0.321-2.424,0.483-3.749,0.483
		c-1.326,0-2.567-0.225-3.724-0.676c-1.157-0.451-2.168-1.072-3.034-1.861c-0.866-0.791-1.538-1.702-2.015-2.74
		c-0.478-1.036-0.715-2.149-0.715-3.342c-0.033-0.51,0.104-0.899,0.408-1.172c0.307-0.271,0.663-0.426,1.071-0.459
		c0.372-0.033,0.739,0.068,1.096,0.306s0.569,0.612,0.64,1.123c0.065,1.733,0.67,3.145,1.811,4.231
		c1.139,1.088,2.626,1.648,4.462,1.685c2.073,0.032,3.681-0.443,4.819-1.429s1.709-2.432,1.709-4.336
		c0-1.121-0.153-2.133-0.459-3.033c-0.307-0.901-0.766-1.803-1.377-2.703c-0.612-0.9-1.377-1.827-2.295-2.78
		c-0.918-0.951-1.99-2.039-3.213-3.265c-1.226-1.223-2.322-2.354-3.291-3.391c-0.97-1.037-1.793-2.031-2.474-2.984
		c-0.681-0.95-1.198-1.887-1.556-2.805s-0.535-1.869-0.535-2.854c0-0.986,0.169-1.964,0.51-2.935
		c0.34-0.969,0.875-1.826,1.605-2.574s1.685-1.352,2.855-1.811c1.174-0.459,2.594-0.689,4.26-0.689c2.107,0,3.875,0.478,5.305,1.431
		C213.231,93.658,214.183,95.256,214.659,97.5z"/>
	<path fill="#E1E1E1" d="M220.627,114.584l-0.104-17.799c0-0.136,0-0.356,0-0.662c0-0.308-0.009-0.62-0.025-0.942
		c-0.018-0.324-0.024-0.64-0.024-0.943c0-0.307,0-0.527,0-0.664c0-0.34,0.128-0.696,0.383-1.07s0.654-0.527,1.198-0.459
		c1.054,0.034,2.337,0.043,3.852,0.025c1.512-0.019,3-0.033,4.461-0.051c1.463-0.019,2.78-0.019,3.953,0
		c1.174,0.018,1.963,0.06,2.371,0.127c0.204,0.033,0.383,0.188,0.536,0.459c0.151,0.271,0.229,0.526,0.229,0.766
		c0,0.68-0.188,1.105-0.562,1.273c-0.374,0.172-0.782,0.256-1.225,0.256c-0.407,0-1.139,0-2.192,0s-2.185-0.008-3.392-0.025
		s-2.338-0.025-3.393-0.025c-1.054,0-1.785,0-2.191,0h-0.971l0.256,14.842c1.599,0.033,3.11,0.052,4.539,0.052
		c1.225,0,2.455,0,3.697,0c1.24,0,2.201-0.034,2.881-0.103c0.17-0.035,0.323-0.053,0.459-0.053h0.766
		c0.307,0.035,0.527,0.205,0.664,0.512c0.135,0.305,0.203,0.543,0.203,0.713c0,0.545-0.137,0.943-0.408,1.199
		c-0.271,0.254-0.629,0.399-1.07,0.434c-0.171,0-0.469,0.009-0.893,0.025c-0.426,0.018-0.928,0.033-1.504,0.051
		c-0.58,0.019-1.218,0.025-1.914,0.025s-1.385,0-2.064,0h-5.406l0.053,9.18v5.254c0,0.578,0.084,0.91,0.254,0.994
		c0.17,0.086,0.441,0.127,0.815,0.127c0.681,0,1.42,0,2.22,0c0.799,0,1.58,0,2.346,0s1.479,0,2.143,0s1.182,0,1.557,0l4.385-0.102
		c0.408-0.033,0.697,0.127,0.867,0.484c0.17,0.356,0.256,0.654,0.256,0.893c-0.034,0.477-0.153,0.832-0.357,1.07
		s-0.578,0.356-1.122,0.356c-1.292,0.033-2.508,0.06-3.646,0.076c-1.141,0.019-2.262,0.024-3.366,0.024s-2.235-0.008-3.392-0.024
		c-1.155-0.019-2.363-0.024-3.621-0.024c-0.68,0-1.268-0.162-1.76-0.484c-0.492-0.324-0.738-0.824-0.738-1.504v-14.282H220.627z"/>
</g>
</svg>
