<?xml version="1.0" encoding="utf-8"?>
<!-- Generator: Adobe Illustrator 16.0.0, SVG Export Plug-In . SVG Version: 6.00 Build 0)  -->
<!DOCTYPE svg PUBLIC "-//W3C//DTD SVG 1.1//EN" "http://www.w3.org/Graphics/SVG/1.1/DTD/svg11.dtd">
<svg version="1.1" id="Default_g_x2B__icon" xmlns="http://www.w3.org/2000/svg" xmlns:xlink="http://www.w3.org/1999/xlink"
	 x="0px" y="0px" width="340.004px" height="342.006px" viewBox="0 0 340.004 342.006" enable-background="new 0 0 340.004 342.006"
	 xml:space="preserve">
<rect x="272.005" y="107.015" fill="#CD3C28" width="23" height="44.999"/>
<rect x="272.005" y="152.014" fill="#CD3C28" width="23" height="22"/>
<rect x="295.005" y="152.014" fill="#CD3C28" width="44.999" height="22"/>
<rect x="272.005" y="174.014" fill="#CD3C28" width="23" height="44.998"/>
<path fill="#CD3C28" d="M179.096,194.327l-16.384-12.51c-4.995-4.047-11.809-9.422-11.809-19.257
	c0-9.858,6.814-16.147,12.727-21.962c19.088-14.757,38.177-30.457,38.177-63.582c0-34.053-20.712-50.492-31.16-59h26.94
	l29.43-17.996L132.252,0c-24.56,0-57.676,2.536-83.593,23.585C29.132,40.143,22.722,64.479,22.722,85.079
	c0,34.904,27.276,70.294,75.452,70.294c4.552,0,9.531-0.446,14.549-0.886c-2.265,5.368-4.552,9.856-4.552,17.466
	c0,13.871,7.269,22.373,13.645,30.436c-20.449,1.363-58.653,3.596-86.808,20.605C8.16,238.69,0,261.504,0,277.637
	c0,33.154,30.507,64.369,96.426,64.369c78.168,0,120.835-42.863,120.835-84.955C217.262,226.143,199.089,210.907,179.096,194.327z
	 M119.551,143.969c-39.096,0-56.826-49.715-56.826-79.709c0-11.657,2.263-24.854,9.985-34.265
	c7.294-8.964,20.006-13.661,31.84-13.661c37.712,0,57.254,50.157,57.254,82.402c0,8.063-0.905,21.247-11.354,31.571
	C143.157,137.479,130.907,143.969,119.551,143.969z M119.943,322.891c-48.627,0-80.002-22.85-80.002-54.65
	c0-31.803,29.086-42.539,39.083-46.121c19.09-6.275,43.647-7.18,47.748-7.18c4.528,0,6.802,0,10.423,0.459
	c34.572,24.195,49.572,36.25,49.572,59.129C186.769,302.252,163.567,322.891,119.943,322.891z"/>
<rect x="227.004" y="152.014" fill="#CD3C28" width="45.001" height="22"/>
</svg>
