<?xml version="1.0" encoding="utf-8"?>
<!-- Generator: Adobe Illustrator 16.0.0, SVG Export Plug-In . SVG Version: 6.00 Build 0)  -->
<!DOCTYPE svg PUBLIC "-//W3C//DTD SVG 1.1//EN" "http://www.w3.org/Graphics/SVG/1.1/DTD/svg11.dtd">
<svg version="1.1" id="Layer_1" xmlns="http://www.w3.org/2000/svg" xmlns:xlink="http://www.w3.org/1999/xlink" x="0px" y="0px"
	 width="527.24px" height="685.98px" viewBox="0 0 527.24 685.98" enable-background="new 0 0 527.24 685.98" xml:space="preserve">
<g>
	<g>
		<path d="M228.801,336.563c-25.187,0-48.865-9.807-66.675-27.617c-17.81-17.811-27.617-41.489-27.617-66.675
			c0-25.187,9.807-48.865,27.617-66.675c17.805-17.811,41.488-27.622,66.675-27.622c25.186,0,48.87,9.807,66.674,27.622
			c36.765,36.764,36.765,96.585,0,133.35C277.671,326.756,253.993,336.563,228.801,336.563z M228.801,163.797
			c-20.963,0-40.671,8.162-55.492,22.988c-14.826,14.826-22.982,34.529-22.982,55.487c0,20.958,8.162,40.666,22.982,55.492
			c14.826,14.826,34.529,22.982,55.492,22.982c20.963,0,40.671-8.162,55.493-22.982c30.595-30.596,30.595-80.383,0-110.979
			C269.473,171.958,249.77,163.797,228.801,163.797z"/>
	</g>
	<g>
		<path d="M384.816,406.195c-2.024,0-4.049-0.77-5.594-2.314l-94.925-94.935c-3.089-3.09-3.089-8.093,0-11.183
			c3.09-3.089,8.094-3.089,11.184,0l94.93,94.935c3.089,3.089,3.089,8.093,0,11.183
			C388.866,405.426,386.842,406.195,384.816,406.195z"/>
	</g>
</g>
</svg>
