<?xml version="1.0" encoding="utf-8"?>
<!-- Generator: Adobe Illustrator 16.0.0, SVG Export Plug-In . SVG Version: 6.00 Build 0)  -->
<!DOCTYPE svg PUBLIC "-//W3C//DTD SVG 1.1//EN" "http://www.w3.org/Graphics/SVG/1.1/DTD/svg11.dtd">
<svg version="1.1" id="Layer_1" xmlns="http://www.w3.org/2000/svg" xmlns:xlink="http://www.w3.org/1999/xlink" x="0px" y="0px"
	 width="286.559px" height="286.177px" viewBox="0 0 286.559 286.177" enable-background="new 0 0 286.559 286.177"
	 xml:space="preserve">
<g>
	<defs>
		<path id="SVGID_1_" d="M143.28,286.177C64.275,286.177,0,221.988,0,143.089C0,64.189,64.275,0,143.28,0
			c79.005,0,143.279,64.189,143.279,143.089C286.559,221.988,222.286,286.177,143.28,286.177L143.28,286.177z M264.116,162.675
			c-4.188-1.32-37.881-11.355-76.232-5.225c16.008,43.93,22.521,79.707,23.775,87.143
			C239.116,226.052,258.661,196.683,264.116,162.675L264.116,162.675z M191.084,255.783c-1.82-10.725-8.926-48.096-26.107-92.684
			c-0.268,0.09-0.537,0.178-0.807,0.271c-69.029,24.021-93.808,71.828-96.01,76.324c20.75,16.16,46.828,25.801,75.12,25.801
			C160.233,265.496,176.391,262.033,191.084,255.783L191.084,255.783z M52.358,224.996c2.772-4.74,36.36-60.277,99.478-80.652
			c1.596-0.516,3.203-1,4.822-1.455c-3.072-6.943-6.418-13.895-9.922-20.742C85.62,140.414,26.314,139.65,20.959,139.541
			c-0.038,1.24-0.063,2.484-0.063,3.734C20.896,174.666,32.812,203.328,52.358,224.996L52.358,224.996z M23.482,118.243
			c5.474,0.072,55.895,0.291,113.142-14.891C116.346,67.353,94.476,37.087,91.25,32.668C57.011,48.796,31.417,80.317,23.482,118.243
			L23.482,118.243z M114.601,24.453c3.383,4.524,25.61,34.752,45.666,71.549c43.518-16.289,61.939-41.019,64.141-44.149
			c-21.611-19.149-50.031-30.797-81.126-30.797C133.406,21.056,123.804,22.238,114.601,24.453L114.601,24.453z M238.012,65.986
			c-2.58,3.485-23.088,29.74-68.338,48.19c2.848,5.821,5.578,11.743,8.119,17.703c0.902,2.113,1.779,4.215,2.637,6.308
			c40.723-5.114,81.184,3.082,85.219,3.934C265.379,113.273,255.057,86.784,238.012,65.986L238.012,65.986z"/>
	</defs>
	<use xlink:href="#SVGID_1_"  overflow="visible" fill-rule="evenodd" clip-rule="evenodd" fill="#999999"/>
	<clipPath id="SVGID_2_">
		<use xlink:href="#SVGID_1_"  overflow="visible"/>
	</clipPath>
</g>
</svg>
