<?xml version="1.0" encoding="utf-8"?>
<!-- Generator: Adobe Illustrator 16.0.0, SVG Export Plug-In . SVG Version: 6.00 Build 0)  -->
<!DOCTYPE svg PUBLIC "-//W3C//DTD SVG 1.1//EN" "http://www.w3.org/Graphics/SVG/1.1/DTD/svg11.dtd">
<svg version="1.1" xmlns="http://www.w3.org/2000/svg" xmlns:xlink="http://www.w3.org/1999/xlink" x="0px" y="0px"
	 width="246.101px" height="214.813px" viewBox="0 0 246.101 214.813" enable-background="new 0 0 246.101 214.813"
	 xml:space="preserve">
<g id="Layer_2">
	<path fill="#999999" d="M92.656,100.313c0-13.982,30.761-18.037,30.761-50.895c0-19.715-1.818-31.6-17.338-38.591
		c0-4.895,27.404-1.679,27.404-10.814c-4.754,0-60.029,0-60.029,0S12.678,1.503,12.678,52.958c0,51.454,53.132,45.489,53.132,45.489
		s0,7.787,0,13.052c0,5.266,7.131,3.496,8.016,14.166C70.236,125.665,0,123.804,0,170.407c0,46.604,61.895,44.372,61.895,44.372
		s71.588,3.264,71.588-54.622C133.483,125.481,92.656,114.296,92.656,100.313z M40.795,55.942
		c-5.619-20.663,1.787-40.667,16.545-44.678c14.758-4.016,31.274,9.481,36.894,30.145c5.623,20.668-1.783,40.675-16.541,44.69
		C62.933,90.11,46.416,76.609,40.795,55.942z M71.534,199.896c-24.777,1.679-45.853-11.609-47.074-29.681
		c-1.228-18.072,17.864-34.082,42.641-35.76c24.784-1.678,45.866,11.605,47.091,29.677
		C115.416,182.21,96.315,198.219,71.534,199.896z"/>
	<polygon fill="#999999" points="246.101,41.789 246.101,54.094 204.312,54.094 204.312,95.839 192.008,95.839 192.008,54.094 
		150.262,54.094 150.262,41.789 192.008,41.789 192.008,0 204.312,0 204.312,41.789 	"/>
</g>
<g id="Layer_3">
</g>
</svg>
