<?xml version="1.0" encoding="utf-8"?>
<!-- Generator: Adobe Illustrator 16.0.0, SVG Export Plug-In . SVG Version: 6.00 Build 0)  -->
<!DOCTYPE svg PUBLIC "-//W3C//DTD SVG 1.1//EN" "http://www.w3.org/Graphics/SVG/1.1/DTD/svg11.dtd">
<svg version="1.1" id="Layer_1" xmlns="http://www.w3.org/2000/svg" xmlns:xlink="http://www.w3.org/1999/xlink" x="0px" y="0px"
	 width="202.251px" height="164.365px" viewBox="0 0 202.251 164.365" enable-background="new 0 0 202.251 164.365"
	 xml:space="preserve">
<g>
	<path fill="#939598" d="M202.251,19.457c-7.441,3.3-15.438,5.531-23.832,6.534c8.566-5.136,15.146-13.267,18.244-22.957
		c-8.018,4.756-16.897,8.208-26.35,10.069C162.745,5.039,151.96,0,140.026,0C117.11,0,98.532,18.578,98.532,41.493
		c0,3.252,0.367,6.419,1.075,9.456c-34.486-1.73-65.061-18.25-85.526-43.354c-3.572,6.128-5.618,13.255-5.618,20.86
		c0,14.396,7.325,27.097,18.459,34.537c-6.802-0.215-13.201-2.081-18.794-5.189c-0.004,0.174-0.004,0.348-0.004,0.521
		c0,20.104,14.303,36.875,33.285,40.688c-3.481,0.949-7.147,1.457-10.931,1.457c-2.674,0-5.273-0.262-7.808-0.744
		c5.281,16.482,20.605,28.48,38.762,28.814c-14.201,11.129-32.092,17.764-51.533,17.764c-3.35,0-6.652-0.197-9.898-0.582
		c18.363,11.775,40.174,18.645,63.607,18.645c76.322,0,118.059-63.229,118.059-118.061c0-1.798-0.04-3.587-0.12-5.368
		C189.653,35.086,196.688,27.778,202.251,19.457z"/>
</g>
</svg>
